<svg width="14" height="14" viewBox="0 0 14 14" fill="none" xmlns="http://www.w3.org/2000/svg">
<path d="M11.6667 0.25H2.33333V1.75H11.6667V0.25ZM2.33333 0.25C1.18579 0.25 0.25 1.18579 0.25 2.33333H1.75C1.75 2.01421 2.01421 1.75 2.33333 1.75V0.25ZM0.25 2.33333V11.6667H1.75V2.33333H0.25ZM0.25 11.6667C0.25 12.8142 1.18579 13.75 2.33333 13.75V12.25C2.01421 12.25 1.75 11.9858 1.75 11.6667H0.25ZM2.33333 13.75H11.6667V12.25H2.33333V13.75ZM11.6667 13.75C12.8142 13.75 13.75 12.8142 13.75 11.6667H12.25C12.25 11.9858 11.9858 12.25 11.6667 12.25V13.75ZM13.75 11.6667V2.33333H12.25V11.6667H13.75ZM13.75 2.33333C13.75 1.18579 12.8142 0.25 11.6667 0.25V1.75C11.9858 1.75 12.25 2.01421 12.25 2.33333H13.75Z" fill="#1C62CD"/>
<path fill-rule="evenodd" clip-rule="evenodd" d="M9.66665 3.57141H4.33332C3.91427 3.57141 3.57141 3.91427 3.57141 4.33332V9.66665C3.57141 10.0857 3.91427 10.4286 4.33332 10.4286H9.66665C10.0857 10.4286 10.4286 10.0857 10.4286 9.66665V4.33332C10.4286 3.91427 10.0857 3.57141 9.66665 3.57141Z" fill="#1C62CD"/>
</svg>
