<svg width="16" height="16" viewBox="0 0 16 16" fill="none" xmlns="http://www.w3.org/2000/svg">
<path d="M11.886 15.21C10.794 15.21 9.933 14.888 9.303 14.244C8.687 13.586 8.379 12.746 8.379 11.724C8.379 10.688 8.715 9.827 9.387 9.141C10.059 8.455 10.948 8.112 12.054 8.112C13.174 8.112 14.042 8.413 14.658 9.015C15.288 9.617 15.603 10.478 15.603 11.598C15.603 12.704 15.26 13.586 14.574 14.244C13.888 14.888 12.992 15.21 11.886 15.21ZM11.088 9.33C11.032 9.666 10.997 9.981 10.983 10.275C10.969 10.569 10.962 11.045 10.962 11.703C10.962 12.361 10.969 12.83 10.983 13.11C10.997 13.39 11.032 13.698 11.088 14.034C11.158 14.356 11.263 14.58 11.403 14.706C11.557 14.818 11.76 14.874 12.012 14.874C12.264 14.874 12.46 14.811 12.6 14.685C12.754 14.559 12.859 14.321 12.915 13.971C12.999 13.453 13.041 12.774 13.041 11.934C13.041 11.094 13.034 10.527 13.02 10.233C13.006 9.925 12.964 9.61 12.894 9.288C12.838 8.966 12.74 8.749 12.6 8.637C12.46 8.511 12.264 8.448 12.012 8.448C11.76 8.448 11.557 8.511 11.403 8.637C11.263 8.749 11.158 8.98 11.088 9.33ZM3.234 15L12.075 0.299999H12.915L4.095 15H3.234ZM4.137 7.167C3.045 7.167 2.184 6.845 1.554 6.201C0.938 5.543 0.63 4.703 0.63 3.681C0.63 2.645 0.966 1.784 1.638 1.098C2.31 0.411999 3.199 0.0689995 4.305 0.0689995C5.425 0.0689995 6.293 0.369999 6.909 0.971999C7.539 1.574 7.854 2.435 7.854 3.555C7.854 4.661 7.511 5.543 6.825 6.201C6.139 6.845 5.243 7.167 4.137 7.167ZM3.339 1.287C3.283 1.623 3.248 1.938 3.234 2.232C3.22 2.526 3.213 3.002 3.213 3.66C3.213 4.318 3.22 4.787 3.234 5.067C3.248 5.347 3.283 5.655 3.339 5.991C3.409 6.313 3.514 6.537 3.654 6.663C3.808 6.775 4.011 6.831 4.263 6.831C4.515 6.831 4.711 6.768 4.851 6.642C5.005 6.516 5.11 6.278 5.166 5.928C5.25 5.396 5.292 4.717 5.292 3.891C5.292 3.051 5.285 2.484 5.271 2.19C5.257 1.882 5.215 1.567 5.145 1.245C5.089 0.922999 4.991 0.705999 4.851 0.593999C4.711 0.467999 4.515 0.404999 4.263 0.404999C4.011 0.404999 3.808 0.467999 3.654 0.593999C3.514 0.705999 3.409 0.936999 3.339 1.287Z" fill="#2F3035"/>
</svg>
